<mxfile host="app.diagrams.net" modified="2023-11-06T17:48:20.216Z" agent="Mozilla/5.0 (Windows NT 10.0; Win64; x64) AppleWebKit/537.36 (KHTML, like Gecko) Chrome/116.0.5845.837 YaBrowser/23.9.4.837 Yowser/2.5 Safari/537.36" etag="RR0tcjKddgZx1DF-wC2a" version="22.0.8" type="github">
  <diagram name="Страница — 1" id="qZyuCqtYraSeB2_nUCm0">
    <mxGraphModel dx="1050" dy="551" grid="1" gridSize="10" guides="1" tooltips="1" connect="1" arrows="1" fold="1" page="0" pageScale="1" pageWidth="800" pageHeight="800" math="0" shadow="0">
      <root>
        <mxCell id="0" />
        <mxCell id="1" parent="0" />
        <mxCell id="ULPUaebz4-1hNP0Pb6-v-1" value="ЕФП" style="shape=umlFrame;whiteSpace=wrap;html=1;pointerEvents=0;" vertex="1" parent="1">
          <mxGeometry x="80" y="80" width="250" height="410" as="geometry" />
        </mxCell>
        <UserObject label="ЕТП" tooltip="Единая Технологическая Платформа" id="ULPUaebz4-1hNP0Pb6-v-2">
          <mxCell style="shape=umlFrame;whiteSpace=wrap;html=1;pointerEvents=0;comic=0;" vertex="1" parent="1">
            <mxGeometry x="400" y="80" width="250" height="410" as="geometry" />
          </mxCell>
        </UserObject>
      </root>
    </mxGraphModel>
  </diagram>
</mxfile>
